name rise30.3154peak39.0474fall46.5389.mot
datacolumns 19
datarows 15
range 7.40830900000000 7.43164800000000
endheader
time	ground_force1_vx	ground_force1_vy	ground_force1_vz	ground_force1_px	ground_force1_py	ground_force1_pz	ground_force2_vx	ground_force2_vy	ground_force2_vz	ground_force2_px	ground_force2_py	ground_force2_pz	ground_torque1_x	ground_torque1_y	ground_torque1_z	ground_torque2_x	ground_torque2_y	ground_torque2_z	
7.40830900000000	9.55624600000000	702.87523899999997	39.90375400000000	0.23246500000000	0.00000000000000	0.13156000000000	0.00000000000000	0.00000000000000	0.00000000000000	0.00000000000000	0.00000000000000	0.00000000000000	0.00000000000000	15.45134000000000	0.00000000000000	0.00000000000000	0.00000000000000	0.00000000000000	
7.40997300000000	9.09399300000000	702.95399299999997	39.95139300000000	0.23167400000000	0.00000000000000	0.13155100000000	0.00000000000000	0.00000000000000	0.00000000000000	0.00000000000000	0.00000000000000	0.00000000000000	0.00000000000000	15.52602800000000	0.00000000000000	0.00000000000000	0.00000000000000	0.00000000000000	
7.41166100000000	8.61714200000000	703.07654600000001	40.00637900000000	0.23085400000000	0.00000000000000	0.13154300000000	0.00000000000000	0.00000000000000	0.00000000000000	0.00000000000000	0.00000000000000	0.00000000000000	0.00000000000000	15.60646500000000	0.00000000000000	0.00000000000000	0.00000000000000	0.00000000000000	
7.41331100000000	8.12559100000000	703.24350100000004	40.06837500000000	0.23000300000000	0.00000000000000	0.13153600000000	0.00000000000000	0.00000000000000	0.00000000000000	0.00000000000000	0.00000000000000	0.00000000000000	0.00000000000000	15.69246900000000	0.00000000000000	0.00000000000000	0.00000000000000	0.00000000000000	
7.41497500000000	7.61929500000000	703.45545100000004	40.13703200000000	0.22912200000000	0.00000000000000	0.13152900000000	0.00000000000000	0.00000000000000	0.00000000000000	0.00000000000000	0.00000000000000	0.00000000000000	0.00000000000000	15.78385000000000	0.00000000000000	0.00000000000000	0.00000000000000	0.00000000000000	
7.41666000000000	7.09826300000000	703.71297500000003	40.21199500000000	0.22820900000000	0.00000000000000	0.13152400000000	0.00000000000000	0.00000000000000	0.00000000000000	0.00000000000000	0.00000000000000	0.00000000000000	0.00000000000000	15.88041400000000	0.00000000000000	0.00000000000000	0.00000000000000	0.00000000000000	
7.41830600000000	6.56256000000000	704.01663399999995	40.29289900000000	0.22726400000000	0.00000000000000	0.13151900000000	0.00000000000000	0.00000000000000	0.00000000000000	0.00000000000000	0.00000000000000	0.00000000000000	0.00000000000000	15.98195800000000	0.00000000000000	0.00000000000000	0.00000000000000	0.00000000000000	
7.41997900000000	6.01230600000000	704.36696900000004	40.37937300000000	0.22628600000000	0.00000000000000	0.13151600000000	0.00000000000000	0.00000000000000	0.00000000000000	0.00000000000000	0.00000000000000	0.00000000000000	0.00000000000000	16.08827700000000	0.00000000000000	0.00000000000000	0.00000000000000	0.00000000000000	
7.42165500000000	5.44767600000000	704.76449800000000	40.47104200000000	0.22527600000000	0.00000000000000	0.13151200000000	0.00000000000000	0.00000000000000	0.00000000000000	0.00000000000000	0.00000000000000	0.00000000000000	0.00000000000000	16.19915800000000	0.00000000000000	0.00000000000000	0.00000000000000	0.00000000000000	
7.42330800000000	4.86890000000000	705.20971099999997	40.56752500000000	0.22423500000000	0.00000000000000	0.13151000000000	0.00000000000000	0.00000000000000	0.00000000000000	0.00000000000000	0.00000000000000	0.00000000000000	0.00000000000000	16.31438900000000	0.00000000000000	0.00000000000000	0.00000000000000	0.00000000000000	
7.42497200000000	4.27626100000000	705.70306600000004	40.66844100000000	0.22316200000000	0.00000000000000	0.13150800000000	0.00000000000000	0.00000000000000	0.00000000000000	0.00000000000000	0.00000000000000	0.00000000000000	0.00000000000000	16.43375100000000	0.00000000000000	0.00000000000000	0.00000000000000	0.00000000000000	
7.42665600000000	3.67009300000000	706.24498800000003	40.77340600000000	0.22205800000000	0.00000000000000	0.13150600000000	0.00000000000000	0.00000000000000	0.00000000000000	0.00000000000000	0.00000000000000	0.00000000000000	0.00000000000000	16.55702400000000	0.00000000000000	0.00000000000000	0.00000000000000	0.00000000000000	
7.42830800000000	3.05078200000000	706.83586500000001	40.88203800000000	0.22092500000000	0.00000000000000	0.13150400000000	0.00000000000000	0.00000000000000	0.00000000000000	0.00000000000000	0.00000000000000	0.00000000000000	0.00000000000000	16.68398800000000	0.00000000000000	0.00000000000000	0.00000000000000	0.00000000000000	
7.42997700000000	2.41876100000000	707.47604200000001	40.99395700000000	0.21976300000000	0.00000000000000	0.13150300000000	0.00000000000000	0.00000000000000	0.00000000000000	0.00000000000000	0.00000000000000	0.00000000000000	0.00000000000000	16.81442000000000	0.00000000000000	0.00000000000000	0.00000000000000	0.00000000000000	
7.43164800000000	1.77451100000000	708.16581900000006	41.10878600000000	0.21857400000000	0.00000000000000	0.13150200000000	0.00000000000000	0.00000000000000	0.00000000000000	0.00000000000000	0.00000000000000	0.00000000000000	0.00000000000000	16.94810000000000	0.00000000000000	0.00000000000000	0.00000000000000	0.00000000000000	
